<?xml version="1.0" encoding="UTF-8"?>
<svg version="1.1" xmlns="http://www.w3.org/2000/svg" width="820" height="820">
<path d="M0 0 C1.48917724 -0.00534026 2.97834908 -0.01241436 4.46751088 -0.02104706 C8.51495624 -0.03950593 12.56203155 -0.03342803 16.60949123 -0.02289402 C20.99205735 -0.01585378 25.37455108 -0.03193636 29.75709534 -0.04489136 C38.3257072 -0.06645721 46.89418587 -0.06642343 55.46281592 -0.05826581 C62.43266368 -0.05194782 69.4024728 -0.05311929 76.37232018 -0.05953789 C77.36699622 -0.06043954 78.36167227 -0.0613412 79.38649001 -0.06227018 C81.40764085 -0.06412152 83.42879168 -0.06598408 85.44994249 -0.06785773 C104.37417187 -0.08441073 123.29832655 -0.07573869 142.22255143 -0.05887216 C159.50422809 -0.04418135 176.78573079 -0.05879935 194.06738506 -0.08764232 C211.8475809 -0.11709445 229.62769662 -0.12799142 247.40791577 -0.11846012 C249.42225499 -0.11743765 251.43659421 -0.11644304 253.45093346 -0.11547661 C254.44181963 -0.11500022 255.4327058 -0.11452383 256.45361883 -0.114033 C263.40643044 -0.11187634 270.35916555 -0.12163312 277.31196022 -0.13624763 C285.79782289 -0.153837 294.28346404 -0.15355955 302.76931826 -0.13089598 C307.0916818 -0.1198128 311.41365602 -0.11645523 315.73600197 -0.13519669 C339.46995425 -0.23035929 358.57726235 1.70745438 379.61235046 13.5146637 C380.59719421 14.04704651 381.58203796 14.57942932 382.59672546 15.12794495 C402.75257722 26.86610717 418.06466403 49.21090435 424.12515187 71.3914454 C428.53474441 88.64625952 428.17639145 106.09510882 428.10593104 123.75943327 C428.09261076 128.21748158 428.10270948 132.67549061 428.10969543 137.13354492 C428.11971142 145.83670652 428.10858354 154.53971454 428.08999483 163.24285702 C428.06909681 173.39666261 428.0693706 183.55043613 428.07033999 193.70425917 C428.07133833 211.82761629 428.05309478 229.95090248 428.02397156 248.07423401 C427.99577757 265.62860912 427.98163135 283.18292188 427.98295593 300.73731995 C427.98303585 301.81954908 427.98311576 302.90177822 427.98319809 304.01680218 C427.9832788 305.09723152 427.98335951 306.17766087 427.98344266 307.29083049 C427.98482471 327.32965701 427.97303206 347.36845725 427.95513623 367.40727522 C427.94912289 374.47274423 427.94697945 381.53820838 427.94607162 388.60367966 C427.94470285 397.21788534 427.93571053 405.83204667 427.91740601 414.44623356 C427.90821769 418.83498065 427.90206133 423.22367131 427.90459442 427.61242867 C427.90680566 431.63894599 427.89962063 435.66533907 427.88529737 439.69183053 C427.88171046 441.13896578 427.88137063 442.58611404 427.88483195 444.0332496 C427.94969998 474.56155768 418.63248892 500.22830247 397.10063171 522.0615387 C389.04074509 529.5892911 379.78348672 536.16125907 369.61235046 540.5146637 C368.52567078 541.00192932 368.52567078 541.00192932 367.41703796 541.4990387 C348.30050368 549.28947587 327.8520889 549.09483931 307.56896675 548.99358523 C303.57504609 548.97815117 299.58115707 548.98627195 295.58721924 548.99127197 C287.79276712 548.99745171 279.99849485 548.98262034 272.20407718 548.96054635 C263.10202607 548.93567363 254.00000633 548.9329341 244.89792628 548.93114259 C228.64375998 548.9272783 212.3896738 548.90489729 196.13554382 548.87135315 C180.40995447 548.83892687 164.68440735 548.81767142 148.95878601 548.80982971 C147.98990273 548.80934422 147.02101944 548.80885873 146.02277606 548.80835853 C142.12667603 548.8064292 138.23057599 548.80451708 134.33447593 548.80264242 C118.3723259 548.79462881 102.41018408 548.7773806 86.44804311 548.75900626 C82.82711797 548.75487621 79.20619276 548.75115184 75.58526683 548.7477839 C66.06902202 548.73882039 56.55279715 548.72690217 47.03656977 548.70621786 C43.10695248 548.69770396 39.17734845 548.69057237 35.24772263 548.68770218 C8.24674934 548.66566174 8.24674934 548.66566174 -3.80828857 548.11297607 C-4.55966065 548.08070398 -5.31103274 548.04843188 -6.08517367 548.01518184 C-32.34314133 546.57362223 -55.75998724 533.79962758 -73.38764954 514.5146637 C-76.38764954 510.93401853 -76.38764954 510.93401853 -76.38764954 508.5146637 C-77.04764954 508.5146637 -77.70764954 508.5146637 -78.38764954 508.5146637 C-82.91705451 503.58136273 -85.72023266 497.0979444 -88.51264954 491.0771637 C-88.83700989 490.40572327 -89.16137024 489.73428284 -89.49555969 489.04249573 C-97.95862183 470.14552136 -96.97001553 449.87611027 -96.91054821 429.64755225 C-96.90141915 425.04623076 -96.915506 420.4449679 -96.9264679 415.84365845 C-96.94417464 406.85233711 -96.94044831 397.86114998 -96.92881733 388.86982358 C-96.91975222 381.55679997 -96.91857226 374.24381375 -96.9229126 366.93078613 C-96.92352553 365.88656005 -96.92413846 364.84233397 -96.92476997 363.76646468 C-96.92604898 361.64457245 -96.92734584 359.52268022 -96.92866033 357.40078801 C-96.94004315 337.54374031 -96.92698859 317.68676671 -96.90545887 297.82973117 C-96.88758999 280.82314166 -96.89069475 263.81666139 -96.90913391 246.81007385 C-96.93058133 227.0199245 -96.93894473 207.22983993 -96.92668486 187.43968058 C-96.92541077 185.32596748 -96.92415329 183.21225438 -96.9229126 181.09854126 C-96.9222955 180.05878607 -96.92167839 179.01903087 -96.92104259 177.94776794 C-96.91760129 170.65079095 -96.92339161 163.35385535 -96.93283081 156.05688477 C-96.9440953 147.15390424 -96.94091775 138.25106463 -96.91970783 129.34810007 C-96.90925698 124.81311953 -96.90497265 120.2783732 -96.91830444 115.74339485 C-97.01261214 80.74057191 -97.01261214 80.74057191 -92.38764954 66.5146637 C-91.98894905 65.28665291 -91.59024857 64.05864212 -91.17946625 62.79341888 C-83.58538791 40.67612807 -64.86778051 20.6385926 -44.08686829 10.3193512 C-42.56651413 9.60422345 -41.04176993 8.89834992 -39.51264954 8.2021637 C-38.83065491 7.88867981 -38.14866028 7.57519592 -37.44599915 7.25221252 C-25.12903051 1.92837894 -13.34791358 -0.08507383 0 0 Z " fill="#1F2534" transform="translate(244.3876495361328,135.48533630371094)"/>
<path d="M0 0 C15.51 0 31.02 0 47 0 C47 71.61 47 143.22 47 217 C31.49 217 15.98 217 0 217 C0 145.39 0 73.78 0 0 Z " fill="#FEFEFE" transform="translate(500,351)"/>
<path d="M0 0 C15.51 0 31.02 0 47 0 C47 55.11 47 110.22 47 167 C31.49 167 15.98 167 0 167 C0 111.89 0 56.78 0 0 Z " fill="#FEFEFE" transform="translate(423,401)"/>
<path d="M0 0 C-0.62364526 8.15252056 -1.7136566 16.17772911 -3 24.25 C-3.35445612 26.50516286 -3.70863094 28.76036995 -4.0625 31.015625 C-4.30806641 32.57313477 -4.30806641 32.57313477 -4.55859375 34.16210938 C-5.06810079 37.43783381 -5.54446951 40.71638436 -6 44 C-9.99919915 42.25473546 -12.31331019 39.73476772 -15.21875 36.55859375 C-17.26361686 34.76933525 -18.28132538 34.12680385 -21 34 C-25.81198686 36.30934154 -28.90152272 39.87689149 -32.40673828 43.77563477 C-39.56742573 51.5908602 -46.98225115 59.11181637 -54.4921875 66.58984375 C-55.81761451 67.91339819 -57.14281537 69.23717914 -58.46780396 70.56117249 C-61.90131156 73.99092082 -65.337814 77.41765205 -68.77502441 80.84368896 C-72.30371088 84.36201685 -75.82945267 87.88329313 -79.35546875 91.40429688 C-86.23415623 98.27236379 -93.11602213 105.13723601 -100 112 C-101.41179598 111.54127114 -102.82256455 111.07937974 -104.23291016 110.61621094 C-105.0186441 110.35934509 -105.80437805 110.10247925 -106.61392212 109.83782959 C-111.03692445 108.28476954 -115.25153564 106.25089355 -119.48828125 104.25390625 C-123.61078454 102.23326768 -123.61078454 102.23326768 -128 103 C-129.85050361 104.97718076 -129.85050361 104.97718076 -131.6875 107.4375 C-132.39648438 108.34886719 -133.10546875 109.26023437 -133.8359375 110.19921875 C-134.55007813 111.12347656 -135.26421875 112.04773438 -136 113 C-137.26766322 114.58587256 -138.53845957 116.16924613 -139.8125 117.75 C-142.08089197 120.58105951 -144.33399855 123.42265606 -146.5625 126.28515625 C-151.60518069 132.75747225 -156.72373196 139.13447144 -162.06982422 145.35961914 C-165.62565891 149.50937711 -168.975573 153.79234398 -172.24609375 158.171875 C-174.30758737 160.32060332 -175.05549251 160.73774641 -178 161 C-180.86914062 159.84423828 -180.86914062 159.84423828 -184.15625 158.0703125 C-185.03247009 157.60563065 -185.03247009 157.60563065 -185.9263916 157.13156128 C-187.79056491 156.14067055 -189.64547007 155.13380655 -191.5 154.125 C-193.35583448 153.12607482 -195.21343197 152.13067843 -197.0736084 151.13986206 C-198.76307734 150.23835952 -200.44711651 149.32670322 -202.13085938 148.41455078 C-204.565147 147.2143923 -206.33750341 146.3443582 -209 146 C-211.39240495 147.93939021 -213.42086707 149.84218677 -215.54101562 152.05273438 C-216.51248787 153.03515862 -216.51248787 153.03515862 -217.50358582 154.03742981 C-218.9108946 155.46379441 -220.31239611 156.89590628 -221.70878601 158.33296204 C-223.91649807 160.60429339 -226.1392901 162.85980796 -228.36682129 165.11169434 C-233.09194182 169.89406497 -237.7972786 174.69561495 -242.5 179.5 C-247.94772576 185.06549495 -253.40314171 190.62295237 -258.88005066 196.15974426 C-261.07516023 198.38738474 -263.25473995 200.62950172 -265.4342041 202.87243652 C-266.77505627 204.23144465 -268.11661161 205.58975947 -269.45898438 206.94726562 C-270.36773567 207.89476433 -270.36773567 207.89476433 -271.29484558 208.86140442 C-273.00231934 210.56994629 -273.00231934 210.56994629 -276 213 C-279.88417367 212.55997211 -281.60078718 210.71917346 -284.25 207.9375 C-284.95640625 207.20402344 -285.6628125 206.47054687 -286.390625 205.71484375 C-286.92171875 205.14894531 -287.4528125 204.58304688 -288 204 C-286.67289741 201.05790165 -285.23210009 198.98385569 -282.95016479 196.70965576 C-282.0120697 195.76743668 -282.0120697 195.76743668 -281.05502319 194.80618286 C-280.37025909 194.12860931 -279.685495 193.45103577 -278.97998047 192.75292969 C-277.89689606 191.6694072 -277.89689606 191.6694072 -276.79193115 190.56399536 C-274.40506011 188.17851721 -272.0111838 185.80020061 -269.6171875 183.421875 C-267.96051221 181.76892998 -266.30427805 180.11554273 -264.64846802 178.46173096 C-260.28974083 174.11063912 -255.92504076 169.76558687 -251.55908203 165.42175293 C-247.10478495 160.98791629 -242.65614582 156.54841091 -238.20703125 152.109375 C-229.47689145 143.4006834 -220.74043306 134.69835992 -212 126 C-208.18345766 127.49846776 -204.5724671 129.18817088 -200.9296875 131.07421875 C-199.78628906 131.65880859 -198.64289063 132.24339844 -197.46484375 132.84570312 C-195.66073504 133.76946401 -193.85838846 134.69613648 -192.06005859 135.63110352 C-190.3129407 136.53786861 -188.55889966 137.43125538 -186.8046875 138.32421875 C-185.76296387 138.86135498 -184.72124023 139.39849121 -183.64794922 139.9519043 C-180.96022723 141.34406428 -180.96022723 141.34406428 -178 140 C-176.24728245 137.95121529 -174.61509647 135.90270262 -173 133.75 C-169.27827628 128.89536172 -165.48739309 124.13905442 -161.5 119.5 C-157.29640022 114.58934311 -153.26006673 109.57275851 -149.28979492 104.47216797 C-143.63887379 97.22418143 -137.81400521 90.11730367 -132 83 C-127.40444414 83.72845406 -123.26150805 85.28478565 -118.9375 86.9375 C-118.23044922 87.20240234 -117.52339844 87.46730469 -116.79492188 87.74023438 C-111.34184438 89.80369938 -111.34184438 89.80369938 -108.81640625 91.25390625 C-106.06712241 92.38318198 -104.83731445 91.95833371 -102 91 C-99.46004746 89.04554574 -97.26314656 86.77831903 -95.02246094 84.49243164 C-94.34058716 83.81274826 -93.65871338 83.13306488 -92.95617676 82.43278503 C-90.70582595 80.18474491 -88.47008426 77.92275063 -86.234375 75.66015625 C-84.67530138 74.09615968 -83.11541456 72.53297336 -81.55474854 70.9705658 C-78.28725273 67.69542924 -75.02632898 64.41393933 -71.77050781 61.12719727 C-67.59014581 56.90721146 -63.39903938 52.6981123 -59.2036705 48.49305058 C-55.21035806 44.48978035 -51.22203433 40.4815564 -47.234375 36.47265625 C-46.4695153 35.70440081 -45.70465561 34.93614536 -44.91661835 34.14460945 C-42.76164852 31.97810191 -40.61021277 29.80815186 -38.45996094 27.63696289 C-37.81685974 26.99117279 -37.17375854 26.34538269 -36.51116943 25.68002319 C-33.37869921 22.62544955 -33.37869921 22.62544955 -31 19 C-31.55171875 18.773125 -32.1034375 18.54625 -32.671875 18.3125 C-35.68692417 16.61274074 -37.81230369 14.45195184 -40.25 12 C-41.14203125 11.113125 -42.0340625 10.22625 -42.953125 9.3125 C-45 7 -45 7 -45 5 C-39.23458904 4.2848395 -33.46879953 3.57284259 -27.70263672 2.86376953 C-25.74126643 2.6221256 -23.78000225 2.3796188 -21.81884766 2.13623047 C-18.99929847 1.78646361 -16.1793818 1.43980549 -13.359375 1.09375 C-12.04510529 0.92969666 -12.04510529 0.92969666 -10.70428467 0.7623291 C-9.47346161 0.61217346 -9.47346161 0.61217346 -8.21777344 0.45898438 C-7.49829529 0.37015991 -6.77881714 0.28133545 -6.03753662 0.18981934 C-4.03271116 0.00304741 -2.01350661 0 0 0 Z " fill="#10B3F1" transform="translate(561,250)"/>
<path d="M0 0 C15.51 0 31.02 0 47 0 C47 42.24 47 84.48 47 128 C31.49 128 15.98 128 0 128 C0 85.76 0 43.52 0 0 Z " fill="#FEFEFE" transform="translate(346,440)"/>
<path d="M0 0 C15.51 0 31.02 0 47 0 C47 23.43 47 46.86 47 71 C31.49 71 15.98 71 0 71 C0 47.57 0 24.14 0 0 Z " fill="#FDFDFE" transform="translate(269,497)"/>
<path d="M0 0 C40.20489218 -0.11460676 80.40976294 -0.20263065 120.61478602 -0.25532665 C125.36835371 -0.26157969 130.12192107 -0.26805135 134.87548828 -0.2746582 C136.29492915 -0.27662553 136.29492915 -0.27662553 137.74304558 -0.2786326 C153.03720372 -0.30035066 168.33126727 -0.33975222 183.62536941 -0.38576398 C199.33488282 -0.43262904 215.04434691 -0.46031658 230.75392735 -0.47044247 C240.4366861 -0.47728086 250.11917742 -0.49882787 259.80185379 -0.53958233 C266.45425475 -0.56614498 273.10651876 -0.57397062 279.75896882 -0.56750689 C283.58913578 -0.56432486 287.41883758 -0.5689758 291.24892044 -0.59602737 C314.0009864 -0.74851554 331.98346958 1.7645175 352 13 C352.98484375 13.53238281 353.9696875 14.06476563 354.984375 14.61328125 C368.99522747 22.77278059 384.17879748 38.75956525 390 54 C390.12109375 56.75390625 390.12109375 56.75390625 390 59 C386.55030296 55.85263595 384.21356427 52.33319277 381.8125 48.375 C372.43047146 33.40458804 359.18192917 20.4742039 343.0625 13 C341.96204346 12.48735596 341.96204346 12.48735596 340.83935547 11.96435547 C325.72396731 5.10725688 310.62660352 1.69389227 294.02229309 1.7215271 C292.75924384 1.7157347 291.4961946 1.7099423 290.19487113 1.70397437 C286.71942419 1.68829609 283.24405834 1.68475047 279.76858032 1.68332577 C276.00934262 1.67961025 272.25014831 1.66444423 268.49093628 1.65071106 C261.98790256 1.62850161 255.48488442 1.61345047 248.98182106 1.60334396 C239.5796377 1.58872141 230.17750861 1.56317467 220.77535721 1.53501268 C205.51879096 1.4896095 190.26221687 1.452968 175.00561523 1.421875 C160.19049707 1.39166289 145.37539806 1.35730043 130.56030273 1.31738281 C129.64618505 1.31492126 128.73206737 1.31245972 127.79024915 1.30992357 C123.20411606 1.29754846 118.61798321 1.28509202 114.03185046 1.27259517 C76.02126021 1.16912436 38.0106467 1.07988919 0 1 C0 0.67 0 0.34 0 0 Z " fill="#2E3544" transform="translate(272,136)"/>
<path d="M0 0 C0 0.33 0 0.66 0 1 C-1.10214844 1.09796875 -2.20429688 1.1959375 -3.33984375 1.296875 C-32.3980482 4.0777035 -61.52505141 13.43537887 -80.9375 36.5 C-92.37853962 51.47274686 -99.0401581 66.13781287 -102.95703125 84.4453125 C-103.68070209 87.79355943 -104.5656645 90.87172077 -106 94 C-106.33 94 -106.66 94 -107 94 C-108.49149653 70.8818038 -97.87715805 49.02870472 -83 32 C-70.92341578 18.67606905 -57.59518117 10.39347229 -41 4 C-39.82179688 3.54238281 -38.64359375 3.08476562 -37.4296875 2.61328125 C-25.31287234 -1.31985351 -12.5873319 -0.37185619 0 0 Z " fill="#444955" transform="translate(255,136)"/>
<path d="M0 0 C0.98871094 0.53367188 1.97742188 1.06734375 2.99609375 1.6171875 C17.0006448 9.78820277 32.17802099 25.75753233 38 41 C38.12109375 43.75390625 38.12109375 43.75390625 38 46 C34.55030296 42.85263595 32.21356427 39.33319277 29.8125 35.375 C20.42770693 20.40017682 7.1812207 7.48261473 -8.9375 0 C-10.02708008 -0.51264404 -10.02708008 -0.51264404 -11.13867188 -1.03564453 C-16.97518877 -3.70337087 -22.90504719 -5.73993641 -29.08569336 -7.453125 C-30.73874042 -7.91861766 -32.37206691 -8.45311623 -34 -9 C-34.33 -9.66 -34.66 -10.32 -35 -11 C-24.51609834 -14.918488 -8.95377113 -4.97079422 0 0 Z " fill="#383D4B" transform="translate(624,149)"/>
<path d="M0 0 C1.32 0.33 2.64 0.66 4 1 C3.16536908 3.80739492 2.25671755 6.4940603 0.9296875 9.109375 C-2.74647281 16.36921361 -4.55677217 23.75134726 -6.30004883 31.65063477 C-7.24652954 35.93244577 -8.16293707 39.99033752 -10 44 C-10.33 44 -10.66 44 -11 44 C-11.91931571 29.75060654 -7.97614946 11.96422419 0 0 Z " fill="#3C404D" transform="translate(159,186)"/>
<path d="M0 0 C3.625 0.3125 3.625 0.3125 5.5625 2.3125 C5.913125 2.9725 6.26375 3.6325 6.625 4.3125 C6.0475 4.1475 5.47 3.9825 4.875 3.8125 C2.35835631 3.16787969 2.35835631 3.16787969 -1.375 3.3125 C-2.74810707 4.60483607 -4.08534824 5.93687146 -5.375 7.3125 C-6.035 7.3125 -6.695 7.3125 -7.375 7.3125 C-7.375 7.9725 -7.375 8.6325 -7.375 9.3125 C-8.68554688 10.60180664 -8.68554688 10.60180664 -10.59375 12.16015625 C-16.69220242 17.34572305 -22.2411587 23.07177797 -27.875 28.75 C-28.99455632 29.8745833 -30.11434629 30.99893405 -31.234375 32.12304688 C-33.95061534 34.85019344 -36.66368292 37.58045907 -39.375 40.3125 C-40.035 39.9825 -40.695 39.6525 -41.375 39.3125 C-40.50286865 38.44560547 -39.6307373 37.57871094 -38.73217773 36.68554688 C-35.46622598 33.43783208 -32.20369701 30.18669673 -28.94213867 26.93457031 C-27.53582925 25.53325867 -26.12861978 24.13284964 -24.72045898 22.73339844 C-22.68490344 20.71010962 -20.65271469 18.68348872 -18.62109375 16.65625 C-18.00100937 16.0413269 -17.38092499 15.42640381 -16.74205017 14.79284668 C-12.91164529 10.96292391 -9.28514727 7.00556861 -5.74916077 2.90197754 C-3.52225128 0.32613438 -3.52225128 0.32613438 0 0 Z " fill="#203749" transform="translate(540.375,283.6875)"/>
<path d="M0 0 C0.66 0 1.32 0 2 0 C6.4422869 8.52377893 9.3637979 18.3229758 9 28 C8.34 28 7.68 28 7 28 C6.78851318 27.17592651 6.78851318 27.17592651 6.57275391 26.33520508 C5.92692683 23.82674079 5.27601097 21.31962371 4.625 18.8125 C4.29242187 17.51602539 4.29242187 17.51602539 3.953125 16.19335938 C3.05605641 12.75019907 2.17751238 9.43663281 0.8359375 6.13671875 C0 4 0 4 0 0 Z " fill="#2E3341" transform="translate(662,196)"/>
<path d="M0 0 C1.15693359 0.00322266 2.31386719 0.00644531 3.50585938 0.00976562 C4.70404297 0.01814453 5.90222656 0.02652344 7.13671875 0.03515625 C8.96299805 0.04192383 8.96299805 0.04192383 10.82617188 0.04882812 C13.82557101 0.06059047 16.82486964 0.07702799 19.82421875 0.09765625 C19.82421875 0.42765625 19.82421875 0.75765625 19.82421875 1.09765625 C18.04917969 1.29681641 18.04917969 1.29681641 16.23828125 1.5 C15.09564819 1.62822144 15.09564819 1.62822144 13.92993164 1.7590332 C12.27312083 1.9434494 10.61605298 2.12557038 8.95874023 2.30541992 C5.46758336 2.68467633 1.98638512 3.07511723 -1.4921875 3.55859375 C-2.35714844 3.67460937 -3.22210938 3.790625 -4.11328125 3.91015625 C-4.84417969 4.01972656 -5.57507813 4.12929687 -6.328125 4.2421875 C-8.17578125 4.09765625 -8.17578125 4.09765625 -9.9296875 2.609375 C-10.34089844 2.11050781 -10.75210938 1.61164063 -11.17578125 1.09765625 C-7.38503588 0.21202536 -3.88882227 -0.01915676 0 0 Z " fill="#393E4B" transform="translate(235.17578125,135.90234375)"/>
<path d="M0 0 C3.25 0.6875 3.25 0.6875 5.1875 2.6875 C5.538125 3.3475 5.88875 4.0075 6.25 4.6875 C5.6725 4.5225 5.095 4.3575 4.5 4.1875 C1.98335631 3.54287969 1.98335631 3.54287969 -1.75 3.6875 C-3.2659375 4.9559375 -3.2659375 4.9559375 -4.8125 6.25 C-6.2665625 7.4565625 -6.2665625 7.4565625 -7.75 8.6875 C-8.74 8.3575 -9.73 8.0275 -10.75 7.6875 C-5.07958143 0.9312566 -5.07958143 0.9312566 0 0 Z " fill="#166E97" transform="translate(540.75,283.3125)"/>
<path d="M0 0 C0.66 0.33 1.32 0.66 2 1 C1.67 1.66 1.34 2.32 1 3 C1.66 3.33 2.32 3.66 3 4 C1.54735962 4.8638129 0.0876837 5.71580454 -1.375 6.5625 C-2.59316406 7.27599609 -2.59316406 7.27599609 -3.8359375 8.00390625 C-4.55007812 8.33261719 -5.26421875 8.66132813 -6 9 C-6.66 8.67 -7.32 8.34 -8 8 C-7.67 7.34 -7.34 6.68 -7 6 C-7.66 5.67 -8.32 5.34 -9 5 C-7.54735962 4.1361871 -6.0876837 3.28419546 -4.625 2.4375 C-3.40683594 1.72400391 -3.40683594 1.72400391 -2.1640625 0.99609375 C-1.44992188 0.66738281 -0.73578125 0.33867187 0 0 Z " fill="#3E4251" transform="translate(204,144)"/>
<path d="M0 0 C2.4375 0.75 2.4375 0.75 5 2 C5.8125 4.125 5.8125 4.125 6 6 C4.125 5.8125 4.125 5.8125 2 5 C0.75 2.4375 0.75 2.4375 0 0 Z " fill="#3F4553" transform="translate(633,157)"/>
<path d="M0 0 C1.65 0.99 3.3 1.98 5 3 C4.67 3.99 4.34 4.98 4 6 C2.02 5.34 0.04 4.68 -2 4 C-1.34 2.68 -0.68 1.36 0 0 Z " fill="#323744" transform="translate(622,148)"/>
<path d="M0 0 C0.33 0 0.66 0 1 0 C1.33 3.3 1.66 6.6 2 10 C1.34 10 0.68 10 0 10 C-0.74926071 6.33694766 -1.2380014 3.57644848 0 0 Z " fill="#272E3F" transform="translate(669,214)"/>
</svg>
